<?xml version="1.0" standalone="no"?><!DOCTYPE svg PUBLIC "-//W3C//DTD SVG 1.1//EN" "http://www.w3.org/Graphics/SVG/1.1/DTD/svg11.dtd"><svg t="1712363668017" class="icon" viewBox="0 0 1024 1024" version="1.1" xmlns="http://www.w3.org/2000/svg" p-id="13902" id="mx_n_1712363668018" xmlns:xlink="http://www.w3.org/1999/xlink" width="200" height="200"><path d="M686.259649 113.178947c-8.982456-3.592982-17.964912 0-21.557895 8.982457-3.592982 8.982456 0 17.964912 8.982457 21.557894C820.996491 208.392982 916.210526 353.908772 916.210526 513.796491c0 39.522807-5.389474 77.249123-16.168421 114.975439l-98.807017-64.673684c-5.389474-3.592982-14.37193-3.592982-19.761404 1.796491-5.389474 5.389474-7.185965 12.575439-3.592982 19.761403l84.435087 147.312281c3.592982 5.389474 8.982456 8.982456 14.37193 8.982456s10.778947-3.592982 14.37193-8.982456c12.575439-23.354386 25.150877-46.708772 32.336842-71.859649 0-1.796491 0-1.796491 1.796491-3.592983 16.168421-46.708772 23.354386-93.417544 23.354386-143.719298-1.796491-174.259649-104.196491-332.350877-262.287719-400.617544zM754.526316 835.368421c-70.063158 52.098246-154.498246 80.842105-242.526316 80.842105-113.178947 0-220.968421-48.505263-296.421053-131.143859l114.975439-48.505263c7.185965-3.592982 10.778947-10.778947 8.982456-17.964913-1.796491-7.185965-8.982456-12.575439-16.168421-12.575438H149.108772c-1.796491 0-5.389474 0-7.185965 1.796491-3.592982 1.796491-5.389474 5.389474-7.185965 8.982456v1.796491c0 3.592982 0 7.185965 1.796491 10.778948 7.185965 10.778947 12.575439 21.557895 19.761404 32.336842 7.185965 8.982456 12.575439 17.964912 19.761403 26.947368 82.638596 98.807018 204.8 158.091228 335.94386 158.091228 95.214035 0 185.038596-30.540351 260.491228-86.231579 7.185965-5.389474 8.982456-16.168421 3.592983-23.354386s-14.37193-7.185965-21.557895-1.796491zM416.785965 120.364912l-5.389474 118.568421c0 7.185965 3.592982 14.37193 12.575439 16.168421 7.185965 1.796491 14.37193-1.796491 17.964912-7.185965l84.435088-147.31228c3.592982-5.389474 3.592982-10.778947 0-16.168421-3.592982-5.389474-8.982456-7.185965-14.37193-7.185965-26.947368 0-53.894737 1.796491-80.842105 7.185965h-1.796491C224.561404 123.957895 77.249123 303.607018 77.249123 512c0 14.37193 0 28.74386 1.796491 43.115789 0 8.982456 7.185965 14.37193 16.168421 14.37193h1.796491c8.982456 0 16.168421-8.982456 14.37193-17.964912-1.796491-12.575439-1.796491-26.947368-1.796491-39.522807 0-186.835088 127.550877-348.519298 307.2-391.635088zM368.280702 512c0 79.045614 64.673684 143.719298 143.719298 143.719298s143.719298-64.673684 143.719298-143.719298-64.673684-143.719298-143.719298-143.719298-143.719298 64.673684-143.719298 143.719298z m199.410526 0c0 30.540351-25.150877 55.691228-55.691228 55.691228s-55.691228-25.150877-55.691228-55.691228 25.150877-55.691228 55.691228-55.691228 55.691228 25.150877 55.691228 55.691228z" p-id="13903" fill="#5bc7f8"></path></svg>